Coordinates
version=1
nRows=25
nColumns=33
inDegrees=yes

Units are S.I. units (second, meters, Newtons, ...)
Angles are in degrees.

endheader
time	ground_thorax_rot_x	ground_thorax_rot_y	ground_thorax_rot_z	ground_thorax_tx	ground_thorax_ty	ground_thorax_tz	clav_prot_r	clav_elev_r	scapula_abduction_r	scapula_elevation_r	scapula_upward_rot_r	scapula_winging_r	shoulder_elv_r	plane_of_elev_r	axial_rot_r	elbow_flexion_r	pro_sup_r	wrist_flex_r	wrist_dev_r	clav_prot_l	clav_elev_l	scapula_abduction_l	scapula_elevation_l	scapula_upward_rot_l	scapula_winging_l	shoulder_elv_l	plane_of_elev_l	axial_rot_l	elbow_flexion_l	pro_sup_l	wrist_flex_l	wrist_dev_l	
7.7900	37.330425	16.761207	18.630963	-218.442086	827.974391	7.360793	12.466729	35.906307	35.638072	45.000000	-45.000000	-2604.501017	-1543.603178	143.253147	180.000000	2892.922068	51.058130	23.070623	8.332301	7.169244	-45.000000	-37.691719	45.000000	-39.468147	2259.176217	-1363.520257	21.914845	-50.921675	370.814546	4.705605	5.508590	-19.793205	
7.8000	37.378843	16.672319	18.414401	-219.814108	828.393259	7.467486	12.435421	35.890644	35.573405	45.000000	-45.000000	-2604.518996	-1543.579513	143.281254	180.000000	2892.921683	51.224903	23.065544	8.237666	7.189516	-45.000000	-37.657582	45.000000	-39.559845	2259.247531	-1363.475263	21.880114	-51.071338	370.811933	4.968759	5.385793	-19.787330	
7.8100	37.424679	16.573580	18.192098	-221.170208	828.793524	7.572436	12.400768	35.875376	35.508641	45.000000	-45.000000	-2604.534572	-1543.553883	143.304483	180.000000	2892.921889	51.407435	23.063287	8.142321	7.208834	-45.000000	-37.627498	45.000000	-39.635822	2259.318254	-1363.434568	21.842390	-51.220286	370.808042	5.280104	5.256895	-19.779205	
7.8200	37.467003	16.471548	17.971804	-222.512306	829.175375	7.675502	12.366119	35.860029	35.438034	45.000000	-45.000000	-2604.547477	-1543.528574	143.325796	180.000000	2892.924690	51.607485	23.061926	8.043250	7.226770	-45.000000	-37.594701	45.000000	-39.718138	2259.388890	-1363.393875	21.806676	-51.375320	370.809986	5.638528	5.123903	-19.770054	
7.8300	37.505865	16.360595	17.750493	-223.841253	829.538411	7.777225	12.328725	35.843993	35.366950	45.000000	-45.000000	-2604.558217	-1543.499755	143.342418	180.000000	2892.929991	51.830063	23.065301	7.942185	7.244184	-45.000000	-37.562484	45.000000	-39.810729	2259.457998	-1363.355683	21.773810	-51.518621	370.814673	6.040670	4.982228	-19.758215	
7.8400	37.539655	16.252196	17.537648	-225.158199	829.882081	7.878537	12.291361	35.828665	35.290201	45.000000	-45.000000	-2604.566723	-1543.474920	143.361920	180.000000	2892.936989	52.081005	23.069617	7.835168	7.262636	-45.000000	-37.524238	45.000000	-39.932135	2259.523302	-1363.316611	21.748004	-51.644881	370.824831	6.487041	4.837331	-19.744571	
7.8500	37.568763	16.143096	17.331056	-226.463823	830.205931	7.980144	12.253708	35.811251	35.212354	45.000000	-45.000000	-2604.572008	-1543.451022	143.384431	180.000000	2892.943883	52.369171	23.077307	7.724179	7.283927	-45.000000	-37.484258	45.000000	-40.078706	2259.584680	-1363.279865	21.729226	-51.742791	370.834912	6.980099	4.684950	-19.727197	
7.8600	37.589894	16.048403	17.143646	-227.759118	830.509809	8.082455	12.218161	35.794569	35.131423	45.000000	-45.000000	-2604.574906	-1543.439307	143.421776	180.000000	2892.948488	52.701903	23.082688	7.605055	7.308604	-45.000000	-37.439323	45.000000	-40.264850	2259.640609	-1363.240610	21.718459	-51.813869	370.847002	7.526148	4.529179	-19.706661	
7.8700	37.598953	15.975231	16.985417	-229.044813	830.793926	8.185478	12.189311	35.773273	35.048238	45.000000	-45.000000	-2604.574423	-1543.443598	143.480267	180.000000	2892.951891	53.092605	23.089255	7.481879	7.344495	-45.000000	-37.388960	45.000000	-40.515885	2259.693091	-1363.196586	21.723231	-51.838781	370.856285	8.139390	4.359970	-19.679799	
7.8800	37.600238	15.910649	16.839763	-230.321493	831.058449	8.288830	12.158629	35.753705	34.963418	45.000000	-45.000000	-2604.571133	-1543.463630	143.550895	180.000000	2892.954752	53.538333	23.090645	7.348124	7.382603	-45.000000	-37.338306	45.000000	-40.784024	2259.739213	-1363.151297	21.731895	-51.829092	370.865701	8.825384	4.189181	-19.649592	
7.8900	37.597693	15.844186	16.697522	-231.589278	831.303004	8.391775	12.128286	35.731303	34.875828	45.000000	-45.000000	-2604.564535	-1543.487516	143.624472	180.000000	2892.959449	54.030644	23.090269	7.210090	7.421221	-45.000000	-37.287781	45.000000	-41.050144	2259.784275	-1363.108309	21.744113	-51.809924	370.876973	9.582698	4.010358	-19.614993	
7.9000	37.594806	15.770855	16.555882	-232.847756	831.525958	8.493065	12.098061	35.709103	34.782463	45.000000	-45.000000	-2604.556084	-1543.506967	143.691102	180.000000	2892.963755	54.556896	23.087388	7.070187	7.460741	-45.000000	-37.232126	45.000000	-41.323984	2259.828130	-1363.068335	21.761950	-51.787600	370.896873	10.409117	3.824949	-19.575937	
7.9100	37.593435	15.688122	16.411338	-234.096427	831.724609	8.591124	12.065240	35.685631	34.686022	45.000000	-45.000000	-2604.545846	-1543.520969	143.751883	180.000000	2892.966793	55.097074	23.081047	6.933244	7.496193	-45.000000	-37.175975	45.000000	-41.586839	2259.870839	-1363.033866	21.779271	-51.766963	370.922808	11.290987	3.635648	-19.532711	
7.9200	37.596055	15.586413	16.253226	-235.334589	831.895122	8.684002	12.023934	35.665355	34.587086	45.000000	-45.000000	-2604.533536	-1543.528175	143.799033	180.000000	2892.965651	55.625185	23.069268	6.800272	7.521263	-45.000000	-37.121900	45.000000	-41.798836	2259.911247	-1363.009687	21.786017	-51.765938	370.950754	12.208307	3.449097	-19.484312	
7.9300	37.604386	15.466794	16.078918	-236.561895	832.033435	8.769983	11.972897	35.647320	34.487405	45.000000	-45.000000	-2604.518330	-1543.527618	143.837090	180.000000	2892.957220	56.117649	23.051551	6.676527	7.531021	-45.000000	-37.075847	45.000000	-41.931245	2259.948968	-1363.000121	21.773691	-51.809313	370.974066	13.135349	3.268543	-19.429891	
7.9400	37.610902	15.345615	15.912608	-237.778171	832.135697	8.847842	11.922700	35.629720	34.381586	45.000000	-45.000000	-2604.499966	-1543.525223	143.871315	180.000000	2892.940213	56.572268	23.033380	6.567403	7.539535	-45.000000	-37.024426	45.000000	-42.055060	2259.987587	-1362.997185	21.760769	-51.878824	370.993479	14.070166	3.084558	-19.365005	
7.9500	37.618995	15.216588	15.746990	-238.983617	832.199386	8.917396	11.867292	35.613570	34.272483	45.000000	-45.000000	-2604.477336	-1543.519103	143.901427	180.000000	2892.914916	56.987511	23.012480	6.469655	7.542102	-45.000000	-36.976796	45.000000	-42.154666	2260.021149	-1363.004272	21.738594	-51.959055	371.006011	15.008472	2.908488	-19.292837	
7.9600	37.621180	15.093861	15.602579	-240.178819	832.223274	8.979173	11.817432	35.596402	34.153860	45.000000	-45.000000	-2604.450458	-1543.516268	143.929652	180.000000	2892.880989	57.375690	22.994316	6.384748	7.550372	-45.000000	-36.912862	45.000000	-42.290052	2260.057467	-1363.011226	21.730356	-52.034746	371.017320	15.963160	2.728341	-19.210222	
7.9700	37.619586	14.985722	15.482830	-241.364307	832.207664	9.034092	11.775633	35.577538	34.029846	45.000000	-45.000000	-2604.421584	-1543.518985	143.965383	180.000000	2892.836248	57.753874	22.978099	6.309281	7.568968	-45.000000	-36.837422	45.000000	-42.483461	2260.091712	-1363.020097	21.739492	-52.081675	371.031342	16.959920	2.546091	-19.118273	
7.9800	37.605683	14.911516	15.415873	-242.540527	832.153900	9.082805	11.757528	35.552834	33.893521	45.000000	-45.000000	-2604.391179	-1543.532520	144.013840	180.000000	2892.784784	58.155113	22.972728	6.244480	7.617483	-45.000000	-36.729779	45.000000	-42.836537	2260.129034	-1363.018463	21.797100	-52.056499	371.055615	18.054547	2.342869	-19.011851	
7.9900	37.588034	14.847477	15.370036	-243.706917	832.064371	9.125484	11.742500	35.527627	33.756865	45.000000	-45.000000	-2604.358837	-1543.556269	144.071155	180.000000	2892.730980	58.585804	22.969028	6.177323	7.673562	-45.000000	-36.618157	45.000000	-43.241096	2260.160192	-1363.018022	21.866749	-51.965514	371.086864	19.262788	2.139961	-18.898256	
8.0000	37.562633	14.791671	15.342693	-244.862140	831.942093	9.161642	11.728159	35.502411	33.618674	45.000000	-45.000000	-2604.322996	-1543.596730	144.136087	180.000000	2892.680875	59.045604	22.967159	6.105755	7.728312	-45.000000	-36.502173	45.000000	-43.650306	2260.192285	-1363.013910	21.939269	-51.852381	371.125149	20.576268	1.934041	-18.776726	
8.0100	37.535744	14.730625	15.311446	-246.003361	831.790694	9.190364	11.701452	35.479421	33.486653	45.000000	-45.000000	-2604.283720	-1543.652739	144.207706	180.000000	2892.635213	59.523725	22.962780	6.026502	7.767473	-45.000000	-36.404553	45.000000	-43.986412	2260.219734	-1363.013657	21.987313	-51.748862	371.167809	21.958173	1.737973	-18.651508	
8.0200	37.513064	14.648338	15.255909	-247.127052	831.614145	9.210666	11.655036	35.459368	33.359704	45.000000	-45.000000	-2604.237628	-1543.713247	144.274923	180.000000	2892.596618	60.004719	22.959603	5.942334	7.781267	-45.000000	-36.332825	45.000000	-44.206829	2260.238312	-1363.020481	21.997385	-51.682746	371.216015	23.357220	1.556519	-18.526278	
8.0300	37.497783	14.546508	15.182618	-248.229009	831.416638	9.221885	11.591801	35.442663	33.239910	45.000000	-45.000000	-2604.187377	-1543.770892	144.335630	180.000000	2892.559972	60.474115	22.958846	5.858491	7.773975	-45.000000	-36.282356	45.000000	-44.328298	2260.251425	-1363.036783	21.971958	-51.659569	371.267399	24.723399	1.392158	-18.400629	
